<?xml version="1.0" standalone="no"?>
<!DOCTYPE svg PUBLIC "-//W3C//DTD SVG 20010904//EN"
 "http://www.w3.org/TR/2001/REC-SVG-20010904/DTD/svg10.dtd">
<svg version="1.0" xmlns="http://www.w3.org/2000/svg"
 width="200.000000pt" height="200.000000pt" viewBox="0 0 200.000000 200.000000"
 preserveAspectRatio="xMidYMid meet">

<g transform="translate(0.000000,200.000000) scale(0.100000,-0.100000)"
fill="#000000" stroke="none">
<path d="M917 1890 c-51 -13 -110 -44 -151 -80 l-34 -31 -64 22 c-245 83 -498
-132 -500 -426 -1 -135 33 -240 109 -332 35 -44 112 -103 133 -103 6 0 69 39
140 88 l128 87 46 164 c25 91 50 167 54 170 205 141 315 211 330 211 29 0 52
-32 52 -72 0 -33 -7 -42 -95 -112 -89 -72 -94 -78 -85 -102 6 -14 10 -57 10
-95 0 -55 -7 -87 -30 -147 -33 -80 -33 -117 -2 -145 9 -9 73 -42 142 -74 69
-32 128 -62 130 -68 10 -21 -92 -45 -191 -44 l-96 1 -71 -47 -72 -48 -164 77
c-90 42 -167 76 -170 76 -3 0 -6 -29 -6 -64 l0 -64 73 -30 c277 -116 626 -120
903 -13 43 17 97 41 119 54 l40 23 3 91 3 92 33 20 c18 12 54 43 79 70 204
219 140 613 -122 738 -73 35 -195 43 -269 19 l-50 -17 -54 40 c-29 23 -73 48
-98 56 -57 20 -154 27 -203 15z m590 -170 c15 -9 12 -10 -14 -6 -38 6 -42 -5
-10 -27 18 -13 19 -16 5 -16 -10 -1 -33 6 -52 15 -32 16 -33 19 -24 45 10 28
10 28 44 14 19 -8 42 -19 51 -25z m-63 -234 c47 -35 66 -74 66 -131 0 -56 -23
-109 -59 -134 -28 -20 -199 -86 -205 -80 -2 2 -20 49 -40 103 -30 79 -36 107
-31 139 8 44 55 103 100 124 47 21 127 12 169 -21z m341 -22 c7 -3 17 -16 23
-30 14 -29 -1 -71 -30 -80 -17 -5 -148 4 -148 11 0 1 12 28 26 60 l26 57 45
-7 c25 -4 51 -9 58 -11z m-134 -174 c52 -27 68 -60 46 -94 -9 -13 -25 -27 -35
-30 -21 -7 -112 29 -112 44 0 17 44 100 52 100 5 0 27 -9 49 -20z m-63 -130
c24 -15 32 -27 32 -49 0 -36 -23 -61 -56 -61 -21 0 -57 13 -72 25 -6 5 48 105
56 105 4 0 22 -9 40 -20z m-427 -110 c37 -19 45 -40 15 -40 -23 0 -38 -27 -28
-47 16 -31 5 -43 -26 -30 -67 30 -66 28 -42 85 12 29 27 52 32 52 5 0 27 -9
49 -20z m355 -25 c31 -48 -7 -104 -62 -91 -29 8 -29 11 -4 70 23 52 42 58 66
21z"/>
<path d="M1293 1438 c-47 -22 -64 -106 -31 -146 9 -10 14 -6 25 19 7 17 13 42
13 54 0 33 33 70 55 62 22 -9 13 -56 -16 -76 -16 -11 -49 -70 -49 -87 0 -2 8
-4 18 -4 14 0 29 22 54 78 28 61 37 73 43 58 8 -17 -15 -73 -47 -118 -29 -41
30 -26 64 16 10 11 18 38 18 59 0 74 -77 119 -147 85z"/>
<path d="M1540 618 c-69 -34 -190 -73 -295 -94 -100 -21 -349 -23 -460 -5 -82
13 -248 62 -297 87 l-28 15 0 -46 c0 -64 20 -96 82 -130 l53 -30 435 0 436 0
48 25 c73 37 88 63 84 141 l-3 65 -55 -28z"/>
<path d="M503 365 c-37 -16 -55 -45 -51 -82 5 -42 23 -37 34 9 7 33 15 45 36
52 15 5 30 8 32 5 2 -2 -6 -54 -20 -114 -29 -136 -29 -135 0 -135 21 0 25 7
40 83 33 157 33 157 66 157 34 0 34 0 19 -34 -9 -20 -9 -29 1 -41 20 -24 30
-18 30 18 0 23 8 41 25 57 14 13 25 18 25 12 0 -7 -18 -61 -40 -121 -42 -113
-46 -131 -31 -131 5 0 23 35 40 77 l30 78 0 -77 c1 -75 2 -78 24 -78 20 0 29
13 57 80 18 45 34 79 35 78 2 -2 -1 -25 -5 -53 -15 -88 -13 -105 13 -105 23 0
25 6 40 118 22 151 22 162 -2 162 -24 0 -31 -10 -70 -105 -18 -44 -35 -82 -38
-85 -3 -3 -3 38 1 90 l6 95 -133 2 c-91 1 -142 -3 -164 -12z"/>
<path d="M1049 357 c-29 -19 -34 -29 -34 -62 0 -22 5 -40 13 -42 8 -3 12 6 12
27 0 39 16 70 36 70 10 0 13 -7 9 -22 -54 -237 -53 -228 -22 -228 21 0 26 7
38 68 13 61 16 67 41 70 38 5 46 32 9 32 -27 0 -28 2 -22 33 6 28 11 33 46 37
27 3 41 10 43 23 3 15 -5 17 -66 17 -55 0 -76 -5 -103 -23z"/>
<path d="M1635 320 c-6 -36 -9 -39 -34 -34 -22 5 -36 -1 -63 -25 -40 -35 -58
-39 -58 -13 0 50 -68 57 -110 12 -34 -37 -48 -38 -56 -5 -7 30 -45 42 -79 27
-53 -24 -84 -125 -50 -162 37 -41 106 -8 123 59 12 52 36 54 27 3 -5 -33 -3
-44 14 -61 12 -12 30 -21 40 -21 28 0 73 42 86 81 17 50 30 45 30 -13 0 -48 2
-53 27 -62 22 -8 32 -6 47 8 19 17 21 17 37 2 19 -20 51 -13 77 16 25 29 21
46 -4 19 -37 -39 -43 -12 -20 93 26 119 26 116 -3 116 -20 0 -25 -6 -31 -40z
m-352 -99 c-2 -64 -44 -117 -60 -75 -6 17 13 92 30 112 18 23 31 7 30 -37z
m164 7 c1 -58 -26 -106 -49 -92 -24 15 8 134 35 134 10 0 14 -13 14 -42z m165
-2 c-5 -58 -19 -86 -43 -86 -19 0 -21 4 -16 40 11 81 65 123 59 46z"/>
</g>
</svg>
